<svg xmlns="http://www.w3.org/2000/svg" viewBox="0 0 512 512" width="512px" height="512px" fill="#38b9fa">
            <g transform="matrix(0.3786701893502621, 0, 0, 0.3786701893502621, -207.88993395329385, -57.29172464863922)" data-uid="o-c4fda7e1b6bc4d618a2391b6ae64f1f0">
                <path class="st0" d="M1559.1 624.6c-68.7-119.2-199.7-199.1-350.4-192.8l-102.5 342.1c12.9 14 22.1 31.4 26 50.7l194.3-15.8c14.9-40.2 53.4-69 98.8-69c58.2 0 105.5 47.2 105.5 105.5c0 51.1-36.4 93.7-84.7 103.4l-60.9 253.1h225.1c160.7 0 290.8-130.3 290.8-290.8C1901.1 729.1 1736.4 593 1559.1 624.6z"></path>
                <path class="st0" d="M1333.7 897.3l-226.5 18.4c-64.5 71.7-183.8 26.1-183.8-70.4c0-56.5 44.5-102.5 100.3-105.2l87.4-291.5c-93.6 29-172.1 92.6-220.1 176c-177.3-31.7-342 104.5-342 286.4c0 160.5 130.2 290.8 290.8 290.8h454.2l65.9-274C1349.3 919.5 1340.4 909.1 1333.7 897.3z"></path>
            </g>
        </svg>